<svg width="734" height="424" viewBox="0 0 734 424" fill="none" xmlns="http://www.w3.org/2000/svg">
<g filter="url(#filter0_b_6_8538)">
<g clip-path="url(#clip0_6_8538)">
<rect width="514.739" height="332.6" rx="31.6762" transform="matrix(0.866025 -0.5 0.866025 0.5 0 257.369)" fill="black" fill-opacity="0.7"/>
<path d="M138.912 238.071C142.72 240.325 148.357 239.555 152.262 238.778C156.273 237.978 158.021 237.941 159.184 238.625C160.961 239.674 159.622 241.363 157.658 242.532C154.231 244.573 151.214 245.167 148.854 245.662L153.467 249.773C155.825 249.271 159.462 247.92 162.59 246.147C169.865 241.947 171.033 237.125 165.491 233.896C158.453 229.8 148.259 235.233 145.168 233.371C144.233 232.805 144.125 231.687 145.868 230.381C146.728 229.733 149.363 228.095 153.894 227.129L149.436 223.149C147.16 223.761 144.434 224.664 141.764 226.205C134.917 230.158 133.741 235.04 138.912 238.071ZM160.435 215.99C159.107 216.757 158.762 217.851 159.452 218.826L173.873 239.151L181.142 234.954L178.591 231.811L187.474 226.682L192.312 228.505L198.719 224.806L166.351 212.575L160.435 215.99ZM168.686 219.579L180.839 224.173L175.093 227.49L168.686 219.579ZM121.737 238.332L142.784 257.1L149.711 253.101L128.661 234.334L121.737 238.332ZM111.489 244.249L122.504 258.934L104.091 251.671C102.019 250.87 99.6682 251.074 98.1673 251.94L86.3806 258.745L86.9931 259.289C89.9379 258.196 93.5341 257.097 96.1059 256.659C97.6787 256.39 98.4533 256.501 100.104 257.067L126.996 266.215L134.317 261.989L118.763 240.049L111.489 244.249Z" fill="white"/>
<path d="M228.135 334.573L210.483 324.381L210.121 324.59L214.587 331.176L212.082 332.622L211.901 332.517L206.982 325.113L211.901 322.273L230.67 333.11L236.645 329.66L238.999 331.019L224.514 339.382L222.161 338.023L228.135 334.573ZM254.91 319.115L257.264 320.474L242.961 328.732L239.34 326.641C238.374 326.083 237.7 325.509 237.318 324.916C236.916 324.312 236.755 323.697 236.835 323.069C236.916 322.419 237.207 321.751 237.71 321.066C238.213 320.381 238.877 319.661 239.702 318.906C241.09 317.64 241.804 316.565 241.844 315.683C241.905 314.788 241.392 314.027 240.305 313.4L240.124 313.296C239.581 312.982 238.958 312.727 238.253 312.529C237.549 312.332 236.795 312.221 235.99 312.198C235.186 312.175 234.361 312.268 233.516 312.477C232.671 312.663 231.836 312.994 231.011 313.47C229.462 314.364 228.728 315.334 228.808 316.379C228.909 317.413 229.744 318.383 231.313 319.289L232.641 320.055L230.106 321.519L228.597 320.648C227.632 320.09 226.867 319.463 226.304 318.766C225.741 318.069 225.429 317.343 225.368 316.588C225.308 315.834 225.539 315.073 226.062 314.306C226.586 313.54 227.451 312.808 228.658 312.111C229.885 311.403 231.142 310.897 232.43 310.595C233.697 310.282 234.944 310.131 236.171 310.142C237.378 310.142 238.515 310.288 239.581 310.578C240.647 310.845 241.583 311.211 242.388 311.675L242.931 311.989C244.54 312.918 245.415 314.004 245.556 315.247C245.677 316.478 244.872 317.872 243.142 319.428C241.633 320.787 240.778 321.931 240.577 322.86C240.356 323.778 240.909 324.62 242.237 325.387L243.142 325.909L254.91 319.115ZM255.976 309.092L252.475 307.071L254.95 300.555L254.588 300.346L242.638 307.245L240.284 305.886L254.407 297.733L258.269 299.963L255.795 306.478L256.157 306.688L257.364 305.991C258.169 305.526 259.074 305.154 260.08 304.876C261.086 304.597 262.122 304.44 263.188 304.405C264.274 304.359 265.36 304.452 266.447 304.684C267.533 304.893 268.559 305.276 269.525 305.834L270.068 306.147C270.973 306.67 271.637 307.262 272.059 307.924C272.482 308.587 272.663 309.272 272.603 309.98C272.522 310.677 272.21 311.38 271.667 312.088C271.124 312.774 270.339 313.412 269.313 314.005C268.126 314.69 266.879 315.201 265.572 315.538C264.264 315.875 262.966 316.055 261.679 316.078C260.371 316.09 259.114 315.956 257.907 315.677C256.7 315.375 255.614 314.946 254.648 314.388L253.019 313.447L255.553 311.984L257.002 312.82C257.766 313.261 258.571 313.587 259.416 313.796C260.261 313.981 261.116 314.069 261.981 314.057C262.846 314.022 263.701 313.889 264.546 313.656C265.391 313.424 266.175 313.099 266.899 312.681C267.563 312.297 268.066 311.879 268.408 311.426C268.77 310.962 268.971 310.497 269.012 310.033C269.032 309.556 268.901 309.098 268.619 308.656C268.318 308.203 267.865 307.803 267.261 307.454L267.08 307.35C265.813 306.618 264.425 306.281 262.916 306.339C261.387 306.386 260.019 306.757 258.812 307.454L255.976 309.092ZM265.551 291.299L270.469 288.459L285.255 296.996L288.514 295.114L290.868 296.473L287.609 298.355L291.592 300.654L289.057 302.118L285.074 299.818L275.297 305.463L271.797 303.442L265.551 291.299ZM274.754 302.64L275.116 302.849L282.721 298.459L269.021 290.549L268.659 290.759L274.754 302.64ZM307.151 280.173L295.986 273.727L309.203 266.096L311.557 267.455L300.814 273.657L308.358 278.013L308.72 277.803C308.519 277.455 308.398 277.083 308.358 276.688C308.298 276.282 308.338 275.875 308.479 275.469C308.64 275.051 308.911 274.638 309.294 274.232C309.656 273.814 310.169 273.413 310.833 273.03C311.798 272.472 312.844 272.054 313.971 271.775C315.117 271.485 316.274 271.34 317.441 271.34C318.608 271.34 319.765 271.485 320.911 271.775C322.078 272.054 323.164 272.484 324.17 273.065L324.713 273.378C325.719 273.959 326.514 274.604 327.097 275.312C327.66 276.009 327.982 276.741 328.063 277.507C328.123 278.262 327.892 279.023 327.369 279.79C326.846 280.556 325.981 281.288 324.774 281.985C323.547 282.693 322.279 283.216 320.972 283.553C319.664 283.89 318.366 284.058 317.079 284.058C315.791 284.058 314.544 283.907 313.337 283.605C312.13 283.28 311.014 282.821 309.988 282.229L309.143 281.741L311.677 280.277L312.341 280.661C314.011 281.625 315.731 282.083 317.501 282.037C319.272 281.967 320.911 281.497 322.42 280.626C323.225 280.161 323.788 279.673 324.11 279.162C324.432 278.628 324.552 278.105 324.472 277.594C324.391 277.06 324.13 276.549 323.687 276.061C323.225 275.562 322.641 275.109 321.937 274.702L321.756 274.598C321.132 274.238 320.438 273.965 319.674 273.779C318.93 273.582 318.165 273.477 317.381 273.465C316.616 273.442 315.852 273.523 315.087 273.709C314.323 273.872 313.629 274.133 313.005 274.493C312.583 274.737 312.251 274.999 312.009 275.277C311.788 275.544 311.647 275.812 311.587 276.079C311.506 276.334 311.496 276.584 311.557 276.828C311.637 277.06 311.758 277.258 311.919 277.42L307.151 280.173ZM331.935 260.08C330.627 259.325 329.178 258.953 327.589 258.965C325.98 258.965 324.461 259.377 323.033 260.202C322.349 260.597 321.836 261.032 321.494 261.509C321.172 261.973 321.031 262.461 321.071 262.972C321.112 263.46 321.323 263.954 321.705 264.453C322.107 264.941 322.681 265.4 323.425 265.829L326.563 267.641L326.925 267.432C326.523 266.642 326.513 265.847 326.895 265.045C327.298 264.232 328.052 263.506 329.158 262.868C330.124 262.31 331.18 261.886 332.327 261.596C333.453 261.294 334.61 261.149 335.797 261.16C337.004 261.16 338.201 261.317 339.388 261.631C340.575 261.921 341.711 262.38 342.798 263.007L343.16 263.216C344.206 263.82 344.97 264.482 345.453 265.202C345.956 265.911 346.187 266.636 346.147 267.38C346.127 268.112 345.835 268.837 345.272 269.558C344.729 270.266 343.934 270.922 342.888 271.526C341.842 272.13 340.696 272.595 339.448 272.92C338.221 273.234 336.974 273.408 335.706 273.443C334.439 273.454 333.192 273.327 331.965 273.059C330.738 272.769 329.611 272.328 328.585 271.735L320.89 267.293C319.784 266.654 318.969 265.963 318.446 265.22C317.923 264.476 317.682 263.733 317.722 262.99C317.742 262.235 318.013 261.509 318.537 260.812C319.08 260.103 319.854 259.459 320.86 258.878C321.866 258.297 322.952 257.844 324.119 257.519C325.286 257.194 326.473 257.02 327.68 256.996C328.867 256.962 330.044 257.083 331.21 257.362C332.377 257.618 333.463 258.036 334.469 258.617L331.935 260.08ZM340.655 270.237C341.38 269.819 341.923 269.378 342.285 268.913C342.647 268.425 342.828 267.937 342.828 267.45C342.828 266.962 342.647 266.486 342.285 266.021C341.923 265.556 341.39 265.121 340.685 264.714L340.323 264.505C339.619 264.099 338.855 263.797 338.03 263.599C337.205 263.402 336.37 263.303 335.525 263.303C334.681 263.303 333.846 263.413 333.021 263.634C332.196 263.832 331.442 264.128 330.758 264.523C330.074 264.918 329.561 265.353 329.219 265.829C328.877 266.305 328.696 266.793 328.676 267.293C328.676 267.781 328.836 268.257 329.158 268.721C329.48 269.186 329.963 269.604 330.607 269.976L331.18 270.307C331.844 270.69 332.578 270.986 333.383 271.195C334.168 271.393 334.982 271.491 335.827 271.491C336.672 271.491 337.507 271.393 338.332 271.195C339.157 270.975 339.931 270.655 340.655 270.237ZM332.758 252.496L346.881 244.343L350.562 246.468L355.119 259.378C355.34 259.993 355.571 260.499 355.813 260.894C356.054 261.288 356.416 261.625 356.899 261.904L357.804 262.427L355.33 263.855L354.244 263.228C353.881 263.019 353.57 262.804 353.308 262.583C353.067 262.351 352.855 262.101 352.674 261.834C352.493 261.544 352.332 261.23 352.192 260.894C352.051 260.534 351.9 260.121 351.739 259.657L347.424 247.165L347.062 246.956L335.112 253.855L332.758 252.496ZM379.57 250.348C378.504 250.964 377.397 251.44 376.251 251.777C375.084 252.102 373.937 252.299 372.811 252.369C371.664 252.427 370.578 252.357 369.552 252.16C368.526 251.939 367.6 251.591 366.776 251.115L366.414 250.905C365.689 250.487 365.156 250.052 364.814 249.599C364.472 249.146 364.271 248.693 364.211 248.24C364.15 247.787 364.211 247.346 364.392 246.916C364.593 246.475 364.875 246.068 365.237 245.696L364.875 245.487C364.271 245.673 363.627 245.801 362.943 245.871C362.259 245.94 361.565 245.958 360.861 245.923C360.177 245.876 359.503 245.766 358.839 245.592C358.155 245.406 357.522 245.145 356.938 244.808L356.576 244.599C355.772 244.134 355.198 243.617 354.856 243.048C354.494 242.467 354.363 241.869 354.464 241.254C354.585 240.627 354.917 240.005 355.46 239.39C356.003 238.751 356.777 238.141 357.783 237.56L357.964 237.456C358.95 236.887 359.996 236.445 361.103 236.132C362.189 235.806 363.265 235.615 364.331 235.557C365.418 235.487 366.464 235.557 367.47 235.766C368.455 235.963 369.351 236.294 370.155 236.759L370.517 236.968C371.101 237.305 371.553 237.671 371.875 238.066C372.177 238.449 372.358 238.844 372.418 239.25C372.499 239.645 372.469 240.046 372.328 240.452C372.207 240.847 371.996 241.213 371.694 241.55L372.056 241.759C372.7 241.55 373.394 241.393 374.138 241.289C374.903 241.172 375.677 241.132 376.462 241.167C377.247 241.201 378.031 241.318 378.816 241.515C379.6 241.713 380.355 242.02 381.079 242.438L381.441 242.647C382.266 243.124 382.859 243.664 383.221 244.268C383.583 244.848 383.714 245.47 383.614 246.132C383.493 246.782 383.151 247.444 382.588 248.118C382.004 248.78 381.179 249.419 380.113 250.034L379.57 250.348ZM377.729 248.763C379.097 247.973 379.852 247.131 379.993 246.236C380.153 245.33 379.671 244.552 378.544 243.902L378.363 243.797C377.116 243.077 375.708 242.775 374.138 242.891C372.589 242.996 371.121 243.449 369.733 244.25L369.552 244.355C368.164 245.156 367.369 246.01 367.168 246.916C366.987 247.81 367.52 248.617 368.767 249.338L368.948 249.442C370.075 250.092 371.413 250.377 372.962 250.296C374.531 250.203 375.999 249.761 377.367 248.972L377.729 248.763ZM367.289 242.944C368.556 242.212 369.25 241.428 369.371 240.592C369.491 239.755 369.049 239.047 368.043 238.466L367.862 238.362C366.836 237.769 365.619 237.52 364.211 237.613C362.802 237.682 361.455 238.089 360.167 238.832C358.88 239.575 358.165 240.359 358.025 241.184C357.884 241.985 358.326 242.682 359.352 243.275L359.533 243.379C360.539 243.96 361.766 244.215 363.215 244.146C364.663 244.076 366.021 243.675 367.289 242.944ZM405.781 227.619C407.089 228.374 408.547 228.752 410.156 228.752C411.746 228.74 413.254 228.322 414.683 227.497C415.367 227.102 415.87 226.673 416.192 226.208C416.534 225.732 416.684 225.25 416.644 224.762C416.604 224.251 416.393 223.757 416.011 223.281C415.628 222.782 415.055 222.311 414.29 221.87L411.152 220.058L410.79 220.267C411.213 221.045 411.243 221.829 410.881 222.619C410.519 223.409 409.764 224.135 408.617 224.797C407.632 225.366 406.576 225.801 405.449 226.103C404.322 226.405 403.166 226.562 401.979 226.574C400.772 226.574 399.575 226.429 398.388 226.138C397.221 225.836 396.095 225.372 395.008 224.745L394.646 224.536C393.6 223.932 392.826 223.275 392.323 222.567C391.8 221.847 391.548 221.121 391.568 220.389C391.588 219.634 391.87 218.902 392.413 218.194C392.956 217.462 393.761 216.789 394.827 216.173C395.893 215.557 397.05 215.099 398.297 214.797C399.545 214.471 400.802 214.303 402.069 214.291C403.357 214.268 404.614 214.402 405.841 214.692C407.068 214.982 408.195 215.424 409.221 216.016L416.825 220.407C417.952 221.057 418.777 221.754 419.3 222.497C419.823 223.217 420.074 223.955 420.054 224.71C420.034 225.441 419.752 226.162 419.209 226.87C418.666 227.579 417.881 228.229 416.855 228.821C415.829 229.414 414.733 229.872 413.566 230.198C412.399 230.523 411.223 230.703 410.036 230.738C408.829 230.761 407.652 230.639 406.505 230.372C405.338 230.093 404.252 229.663 403.246 229.083L405.781 227.619ZM397.06 217.462C396.336 217.88 395.793 218.333 395.431 218.821C395.089 219.297 394.928 219.785 394.948 220.285C394.968 220.784 395.169 221.272 395.551 221.748C395.914 222.213 396.437 222.642 397.121 223.037L397.483 223.246C398.187 223.653 398.951 223.955 399.776 224.152C400.581 224.338 401.405 224.431 402.25 224.431C403.075 224.419 403.89 224.309 404.695 224.1C405.499 223.891 406.254 223.583 406.958 223.177C407.642 222.782 408.165 222.352 408.527 221.887C408.869 221.411 409.05 220.935 409.07 220.459C409.11 219.971 408.97 219.495 408.648 219.03C408.326 218.566 407.843 218.147 407.199 217.776L406.626 217.445C405.962 217.061 405.228 216.765 404.423 216.556C403.618 216.347 402.794 216.243 401.949 216.243C401.084 216.231 400.229 216.33 399.384 216.539C398.559 216.736 397.784 217.044 397.06 217.462ZM414.511 214.774C411.775 213.194 410.306 211.592 410.105 209.965C409.904 208.339 410.97 206.853 413.304 205.505C415.637 204.158 418.212 203.543 421.029 203.659C423.845 203.775 426.621 204.623 429.357 206.202L434.065 208.92C436.881 210.546 438.37 212.161 438.531 213.763C438.692 215.366 437.605 216.841 435.272 218.189C432.938 219.536 430.383 220.163 427.607 220.07C424.831 219.977 422.035 219.118 419.218 217.492L414.511 214.774ZM432.978 216.865C434.608 215.924 435.262 214.896 434.94 213.781C434.618 212.643 433.421 211.475 431.349 210.279L427.004 207.77C426.038 207.213 425.062 206.766 424.077 206.429C423.071 206.08 422.075 205.865 421.089 205.784C420.103 205.68 419.138 205.715 418.192 205.889C417.267 206.051 416.402 206.365 415.597 206.83C414.772 207.306 414.219 207.811 413.938 208.345C413.656 208.879 413.596 209.437 413.757 210.018C413.917 210.575 414.3 211.144 414.903 211.725C415.487 212.294 416.261 212.857 417.227 213.415L421.572 215.924C423.644 217.12 425.656 217.817 427.607 218.014C429.559 218.189 431.349 217.805 432.978 216.865ZM422.357 212.962C421.834 212.66 421.572 212.288 421.572 211.847C421.572 211.406 421.834 211.034 422.357 210.732C422.88 210.43 423.523 210.279 424.288 210.279C425.052 210.279 425.696 210.43 426.219 210.732C426.742 211.034 427.004 211.406 427.004 211.847C427.004 212.288 426.742 212.66 426.219 212.962C425.696 213.264 425.052 213.415 424.288 213.415C423.523 213.415 422.88 213.264 422.357 212.962ZM432.988 204.106C430.252 202.527 428.783 200.924 428.582 199.298C428.381 197.672 429.447 196.185 431.781 194.838C434.114 193.491 436.689 192.875 439.506 192.991C442.322 193.107 445.098 193.955 447.834 195.535L452.541 198.253C455.358 199.879 456.847 201.493 457.007 203.096C457.168 204.699 456.082 206.174 453.749 207.521C451.415 208.868 448.86 209.496 446.084 209.403C443.308 209.31 440.511 208.45 437.695 206.824L432.988 204.106ZM451.455 206.197C453.085 205.256 453.738 204.228 453.417 203.113C453.095 201.975 451.898 200.808 449.826 199.612L445.48 197.103C444.515 196.545 443.539 196.098 442.553 195.761C441.547 195.413 440.552 195.198 439.566 195.117C438.58 195.012 437.615 195.047 436.669 195.221C435.744 195.384 434.879 195.697 434.074 196.162C433.249 196.638 432.696 197.143 432.414 197.678C432.133 198.212 432.072 198.769 432.233 199.35C432.394 199.908 432.776 200.477 433.38 201.058C433.963 201.627 434.738 202.19 435.703 202.747L440.049 205.256C442.121 206.453 444.133 207.149 446.084 207.347C448.035 207.521 449.826 207.138 451.455 206.197ZM440.833 202.294C440.31 201.993 440.049 201.621 440.049 201.179C440.049 200.738 440.31 200.366 440.833 200.064C441.356 199.763 442 199.612 442.765 199.612C443.529 199.612 444.173 199.763 444.696 200.064C445.219 200.366 445.48 200.738 445.48 201.179C445.48 201.621 445.219 201.993 444.696 202.294C444.173 202.596 443.529 202.747 442.765 202.747C442 202.747 441.356 202.596 440.833 202.294ZM451.464 193.439C448.728 191.859 447.26 190.256 447.059 188.63C446.858 187.004 447.924 185.518 450.257 184.17C452.591 182.823 455.166 182.208 457.982 182.324C460.799 182.44 463.575 183.288 466.311 184.867L471.018 187.585C473.835 189.211 475.323 190.826 475.484 192.428C475.645 194.031 474.559 195.506 472.225 196.854C469.892 198.201 467.337 198.828 464.561 198.735C461.784 198.642 458.988 197.783 456.172 196.157L451.464 193.439ZM469.932 195.529C471.561 194.589 472.215 193.561 471.893 192.446C471.571 191.308 470.374 190.14 468.302 188.944L463.957 186.435C462.991 185.878 462.016 185.431 461.03 185.094C460.024 184.745 459.028 184.53 458.043 184.449C457.057 184.345 456.091 184.379 455.146 184.554C454.22 184.716 453.355 185.03 452.551 185.494C451.726 185.971 451.173 186.476 450.891 187.01C450.609 187.544 450.549 188.102 450.71 188.683C450.871 189.24 451.253 189.809 451.857 190.39C452.44 190.959 453.215 191.522 454.18 192.08L458.525 194.589C460.598 195.785 462.609 196.482 464.561 196.679C466.512 196.854 468.302 196.47 469.932 195.529ZM459.31 191.627C458.787 191.325 458.525 190.953 458.525 190.512C458.525 190.071 458.787 189.699 459.31 189.397C459.833 189.095 460.477 188.944 461.241 188.944C462.006 188.944 462.649 189.095 463.172 189.397C463.696 189.699 463.957 190.071 463.957 190.512C463.957 190.953 463.696 191.325 463.172 191.627C462.649 191.929 462.006 192.08 461.241 192.08C460.477 192.08 459.833 191.929 459.31 191.627ZM488.418 172.104C485.682 170.524 484.213 168.921 484.012 167.295C483.811 165.669 484.877 164.183 487.211 162.835C489.544 161.488 492.119 160.872 494.936 160.989C497.752 161.105 500.528 161.953 503.264 163.532L507.972 166.25C510.788 167.876 512.277 169.491 512.438 171.093C512.599 172.696 511.512 174.171 509.179 175.518C506.845 176.866 504.29 177.493 501.514 177.4C498.738 177.307 495.942 176.448 493.125 174.822L488.418 172.104ZM506.885 174.194C508.515 173.254 509.169 172.226 508.847 171.111C508.525 169.973 507.328 168.805 505.256 167.609L500.91 165.1C499.945 164.543 498.969 164.096 497.983 163.759C496.978 163.41 495.982 163.195 494.996 163.114C494.01 163.01 493.045 163.044 492.099 163.219C491.174 163.381 490.309 163.695 489.504 164.159C488.679 164.636 488.126 165.141 487.844 165.675C487.563 166.209 487.502 166.767 487.663 167.348C487.824 167.905 488.207 168.474 488.81 169.055C489.393 169.624 490.168 170.187 491.134 170.745L495.479 173.254C497.551 174.45 499.563 175.147 501.514 175.344C503.465 175.518 505.256 175.135 506.885 174.194ZM496.263 170.292C495.74 169.99 495.479 169.618 495.479 169.177C495.479 168.736 495.74 168.364 496.263 168.062C496.786 167.76 497.43 167.609 498.195 167.609C498.959 167.609 499.603 167.76 500.126 168.062C500.649 168.364 500.91 168.736 500.91 169.177C500.91 169.618 500.649 169.99 500.126 170.292C499.603 170.594 498.959 170.745 498.195 170.745C497.43 170.745 496.786 170.594 496.263 170.292ZM506.894 161.436C504.159 159.857 502.69 158.254 502.489 156.628C502.288 155.002 503.354 153.515 505.687 152.168C508.021 150.821 510.596 150.205 513.412 150.321C516.229 150.437 519.005 151.285 521.741 152.865L526.448 155.583C529.265 157.209 530.753 158.823 530.914 160.426C531.075 162.029 529.989 163.504 527.655 164.851C525.322 166.198 522.767 166.825 519.991 166.733C517.215 166.64 514.418 165.78 511.602 164.154L506.894 161.436ZM525.362 163.527C526.991 162.586 527.645 161.558 527.323 160.443C527.001 159.305 525.805 158.138 523.732 156.941L519.387 154.433C518.422 153.875 517.446 153.428 516.46 153.091C515.454 152.743 514.458 152.528 513.473 152.447C512.487 152.342 511.521 152.377 510.576 152.551C509.65 152.714 508.785 153.027 507.981 153.492C507.156 153.968 506.603 154.473 506.321 155.008C506.039 155.542 505.979 156.099 506.14 156.68C506.301 157.238 506.683 157.807 507.287 158.387C507.87 158.957 508.645 159.52 509.61 160.077L513.956 162.586C516.028 163.782 518.039 164.479 519.991 164.677C521.942 164.851 523.732 164.468 525.362 163.527ZM514.74 159.624C514.217 159.322 513.956 158.951 513.956 158.509C513.956 158.068 514.217 157.696 514.74 157.394C515.263 157.092 515.907 156.941 516.671 156.941C517.436 156.941 518.08 157.092 518.603 157.394C519.126 157.696 519.387 158.068 519.387 158.509C519.387 158.951 519.126 159.322 518.603 159.624C518.08 159.926 517.436 160.077 516.671 160.077C515.907 160.077 515.263 159.926 514.74 159.624ZM525.371 150.769C522.635 149.189 521.167 147.586 520.965 145.96C520.764 144.334 521.831 142.848 524.164 141.5C526.498 140.153 529.073 139.537 531.889 139.654C534.705 139.77 537.482 140.618 540.218 142.197L544.925 144.915C547.741 146.541 549.23 148.155 549.391 149.758C549.552 151.361 548.466 152.836 546.132 154.183C543.798 155.531 541.244 156.158 538.467 156.065C535.691 155.972 532.895 155.113 530.079 153.487L525.371 150.769ZM543.839 152.859C545.468 151.919 546.122 150.891 545.8 149.776C545.478 148.637 544.281 147.47 542.209 146.274L537.864 143.765C536.898 143.208 535.923 142.76 534.937 142.424C533.931 142.075 532.935 141.86 531.949 141.779C530.964 141.674 529.998 141.709 529.053 141.884C528.127 142.046 527.262 142.36 526.457 142.824C525.633 143.301 525.079 143.806 524.798 144.34C524.516 144.874 524.456 145.432 524.617 146.013C524.778 146.57 525.16 147.139 525.763 147.72C526.347 148.289 527.121 148.852 528.087 149.41L532.432 151.919C534.504 153.115 536.516 153.812 538.467 154.009C540.419 154.183 542.209 153.8 543.839 152.859ZM533.217 148.957C532.694 148.655 532.432 148.283 532.432 147.842C532.432 147.401 532.694 147.029 533.217 146.727C533.74 146.425 534.384 146.274 535.148 146.274C535.912 146.274 536.556 146.425 537.079 146.727C537.602 147.029 537.864 147.401 537.864 147.842C537.864 148.283 537.602 148.655 537.079 148.957C536.556 149.259 535.912 149.41 535.148 149.41C534.384 149.41 533.74 149.259 533.217 148.957ZM543.848 140.101C541.112 138.522 539.643 136.919 539.442 135.293C539.241 133.667 540.307 132.18 542.641 130.833C544.974 129.485 547.549 128.87 550.366 128.986C553.182 129.102 555.958 129.95 558.694 131.53L563.402 134.247C566.218 135.873 567.707 137.488 567.868 139.091C568.029 140.694 566.942 142.169 564.609 143.516C562.275 144.863 559.72 145.49 556.944 145.397C554.168 145.305 551.372 144.445 548.555 142.819L543.848 140.101ZM562.315 142.192C563.945 141.251 564.599 140.223 564.277 139.108C563.955 137.97 562.758 136.803 560.686 135.606L556.341 133.098C555.375 132.54 554.399 132.093 553.414 131.756C552.408 131.408 551.412 131.193 550.426 131.112C549.44 131.007 548.475 131.042 547.529 131.216C546.604 131.379 545.739 131.692 544.934 132.157C544.109 132.633 543.556 133.138 543.274 133.673C542.993 134.207 542.933 134.764 543.093 135.345C543.254 135.903 543.637 136.472 544.24 137.052C544.824 137.621 545.598 138.185 546.564 138.742L550.909 141.251C552.981 142.447 554.993 143.144 556.944 143.342C558.895 143.516 560.686 143.133 562.315 142.192ZM551.694 138.289C551.17 137.987 550.909 137.616 550.909 137.174C550.909 136.733 551.17 136.361 551.694 136.059C552.217 135.757 552.86 135.606 553.625 135.606C554.389 135.606 555.033 135.757 555.556 136.059C556.079 136.361 556.341 136.733 556.341 137.174C556.341 137.616 556.079 137.987 555.556 138.289C555.033 138.591 554.389 138.742 553.625 138.742C552.86 138.742 552.217 138.591 551.694 138.289Z" fill="white"/>
<path d="M275.144 370.093L266.022 364.827L267.742 363.834L271.365 365.925L271.599 365.79L270.935 361.991L273.137 360.719L273.828 365.512L282.389 365.91L280.121 367.219L273.398 366.828L273.163 366.963L276.864 369.1L275.144 370.093ZM282.675 365.745L275.951 359.094L278.948 357.364L290.467 361.246L288.695 362.269L286.193 361.397L282.936 363.277L284.447 364.722L282.675 365.745ZM281.75 362.126L284.199 360.712L278.649 358.786L278.414 358.921L281.75 362.126ZM291.559 360.616L282.438 355.35L286.399 353.063C286.972 352.732 287.572 352.501 288.197 352.37C288.822 352.24 289.435 352.212 290.034 352.288C290.634 352.363 291.181 352.543 291.676 352.829L291.833 352.92C292.38 353.236 292.693 353.567 292.771 353.913C292.849 354.259 292.775 354.587 292.549 354.898L292.784 355.034C293.149 354.843 293.54 354.758 293.956 354.778C294.365 354.793 294.751 354.906 295.116 355.116L298.1 356.839L296.38 357.832L293.644 356.252C293.435 356.132 293.209 356.067 292.966 356.057C292.732 356.042 292.488 356.107 292.236 356.252L289.839 357.637L293.279 359.623L291.559 360.616ZM288.275 356.734L290.334 355.545C290.742 355.309 290.951 355.064 290.959 354.808C290.968 354.542 290.79 354.304 290.425 354.093L290.295 354.018C289.93 353.807 289.526 353.704 289.083 353.71C288.631 353.71 288.197 353.83 287.78 354.071L285.721 355.259L288.275 356.734ZM301.75 354.732L294.193 350.368L291.534 351.903L289.971 351L297.007 346.938L298.571 347.841L295.913 349.375L303.47 353.739L301.75 354.732ZM307.3 351.528L298.178 346.262L299.898 345.269L309.02 350.535L307.3 351.528ZM310.735 349.544L301.614 344.278L303.334 343.285L306.957 345.376L307.191 345.241L306.527 341.442L308.729 340.17L309.419 344.963L317.98 345.361L315.713 346.67L308.989 346.279L308.755 346.415L312.455 348.551L310.735 349.544ZM321.94 343.075L320.429 342.202L321.627 341.51L315.529 337.99L314.33 338.682L312.819 337.809L317.51 335.101C318.066 334.78 318.643 334.556 319.243 334.431C319.842 334.296 320.429 334.263 321.002 334.333C321.575 334.393 322.101 334.561 322.579 334.837L322.709 334.913C323.126 335.153 323.391 335.397 323.504 335.642C323.608 335.883 323.625 336.109 323.556 336.319C323.486 336.52 323.386 336.693 323.256 336.838L323.491 336.974C323.734 336.894 324.042 336.831 324.416 336.786C324.781 336.736 325.176 336.743 325.602 336.808C326.036 336.869 326.47 337.024 326.905 337.275L327.035 337.35C327.539 337.641 327.856 337.959 327.986 338.305C328.108 338.647 328.056 338.993 327.83 339.344C327.613 339.69 327.23 340.021 326.683 340.337L321.94 343.075ZM323.295 340.487L324.911 339.554C325.285 339.339 325.493 339.113 325.536 338.877C325.589 338.637 325.445 338.418 325.106 338.223L324.976 338.148C324.637 337.952 324.264 337.867 323.856 337.892C323.447 337.917 323.052 338.04 322.67 338.26L321.054 339.193L323.295 340.487ZM319.49 338.29L321.08 337.373C321.436 337.167 321.636 336.946 321.679 336.711C321.732 336.47 321.597 336.257 321.276 336.071L321.145 335.996C320.815 335.805 320.45 335.725 320.051 335.755C319.642 335.78 319.256 335.898 318.891 336.109L317.301 337.027L319.49 338.29ZM330.152 338.334L323.428 331.684L326.425 329.953L337.944 333.835L336.172 334.858L333.67 333.986L330.412 335.866L331.924 337.311L330.152 338.334ZM329.227 334.715L331.676 333.301L326.125 331.375L325.891 331.511L329.227 334.715ZM339.036 333.205L329.915 327.939L333.185 326.05L342.945 329.594L343.18 329.458L335.231 324.869L336.925 323.891L346.046 329.157L342.776 331.046L333.016 327.502L332.781 327.638L340.73 332.227L339.036 333.205ZM351.114 326.442C350.41 326.848 349.663 327.134 348.873 327.3C348.082 327.465 347.3 327.5 346.527 327.405C345.754 327.31 345.038 327.072 344.377 326.69L344.012 326.48L345.706 325.502L346.071 325.712C346.619 326.028 347.201 326.169 347.817 326.134C348.425 326.094 349.02 325.906 349.603 325.57C350.193 325.228 350.515 324.907 350.567 324.607C350.628 324.301 350.476 324.042 350.111 323.832C349.859 323.686 349.581 323.611 349.277 323.606C348.981 323.596 348.647 323.644 348.273 323.749C347.9 323.844 347.474 323.98 346.996 324.155L346.632 324.291C345.867 324.571 345.155 324.782 344.495 324.923C343.834 325.053 343.209 325.088 342.618 325.028C342.036 324.963 341.467 324.77 340.911 324.449C340.355 324.128 340.012 323.779 339.882 323.403C339.752 323.017 339.821 322.625 340.09 322.229C340.36 321.823 340.82 321.432 341.472 321.056C342.123 320.679 342.814 320.411 343.543 320.251C344.273 320.08 345.003 320.04 345.732 320.13C346.462 320.211 347.157 320.441 347.817 320.822L348.208 321.048L346.514 322.026L346.123 321.8C345.776 321.6 345.428 321.479 345.081 321.439C344.733 321.389 344.386 321.409 344.039 321.5C343.682 321.585 343.331 321.728 342.983 321.928C342.462 322.229 342.175 322.51 342.123 322.771C342.071 323.022 342.214 323.245 342.553 323.44C342.779 323.571 343.026 323.649 343.296 323.674C343.574 323.694 343.882 323.666 344.221 323.591C344.56 323.516 344.951 323.395 345.394 323.23L345.759 323.094C346.549 322.799 347.292 322.575 347.987 322.425C348.69 322.269 349.355 322.217 349.98 322.267C350.606 322.317 351.197 322.503 351.753 322.824C352.308 323.145 352.656 323.511 352.795 323.922C352.934 324.323 352.864 324.744 352.586 325.186C352.308 325.617 351.818 326.036 351.114 326.442ZM355.042 323.964L348.318 317.313L351.315 315.583L362.834 319.465L361.062 320.488L358.56 319.615L355.303 321.496L356.814 322.941L355.042 323.964ZM354.117 320.345L356.567 318.931L351.016 317.005L350.781 317.14L354.117 320.345ZM363.926 318.835L354.805 313.568L356.525 312.575L364.082 316.939L368.252 314.531L369.816 315.434L363.926 318.835Z" fill="white"/>
<path d="M431.968 69.9344C432.924 69.9985 433.879 70.1863 434.727 70.4357C435.575 70.6851 436.423 71.0582 437.163 71.4929C437.904 71.9276 438.538 72.4238 438.959 72.9196C439.381 73.4154 439.696 73.9728 439.798 74.5296C440.005 75.2723 441.17 75.8317 442.446 75.711C443.721 75.5903 444.682 74.9123 444.475 74.1696C444.269 73.3033 443.849 72.5601 443.218 71.6928C442.587 70.8254 441.635 70.1428 440.577 69.5218C439.519 68.9009 438.248 68.4031 436.869 67.9669C435.597 67.5928 434.111 67.3419 432.625 67.2147C431.351 67.0879 430.178 67.6418 429.96 68.3834C429.743 69.1251 430.694 69.8077 431.968 69.9344Z" fill="white"/>
<path d="M434.767 64.7458C438.058 65.1866 441.238 66.1836 443.778 67.674C446.317 69.1643 448.004 71.0238 448.734 72.9428C448.941 73.6854 450.319 74.1216 451.595 74.0009C452.978 73.8187 453.62 73.078 453.413 72.3354C452.474 69.9211 450.472 67.628 447.192 65.703C444.017 63.84 439.989 62.5935 435.849 62.0271C434.575 61.9004 433.191 62.3301 432.973 63.0717C432.755 63.8134 433.388 64.557 434.767 64.7458Z" fill="white"/>
<path d="M437.781 59.3104C442.557 60.002 447.009 61.4969 450.712 63.6703C454.415 65.8438 456.84 68.509 458.096 71.2332C458.516 71.9764 459.681 72.4121 461.064 72.2298C462.34 71.9854 463.089 71.3069 462.776 70.5021C461.418 67.221 458.571 64.1837 454.233 61.6377C449.895 59.0917 444.701 57.4095 439.075 56.5922C437.802 56.3418 436.524 56.8335 436.093 57.5747C435.769 58.3779 436.508 59.06 437.781 59.3104Z" fill="white"/>
<path d="M440.794 53.875C446.95 54.8791 452.886 56.7486 457.753 59.6051C462.62 62.4616 465.89 65.871 467.458 69.5237C467.877 70.2668 469.043 70.7025 470.426 70.5203C471.702 70.2759 472.451 69.5973 472.138 68.7926C470.254 64.7062 466.669 60.8632 461.167 57.6341C455.665 54.405 449.093 52.2866 442.089 51.1568C440.816 50.9064 439.537 51.3981 439.107 52.1393C438.677 52.8804 439.521 53.6246 440.794 53.875Z" fill="white"/>
<path d="M391.694 298.044C391.406 297.875 391.263 297.667 391.265 297.42C391.267 297.172 391.413 296.965 391.703 296.797C391.993 296.63 392.351 296.547 392.776 296.548C393.201 296.549 393.557 296.634 393.845 296.803C394.133 296.971 394.276 297.18 394.274 297.427C394.272 297.674 394.126 297.882 393.836 298.049C393.546 298.217 393.188 298.3 392.763 298.299C392.338 298.298 391.982 298.213 391.694 298.044ZM388.476 298.749C387.325 298.074 386.722 297.382 386.668 296.674C386.622 295.962 387.115 295.307 388.148 294.711C389.181 294.115 390.305 293.835 391.52 293.873C392.744 293.905 393.931 294.26 395.082 294.935L397.063 296.098C398.248 296.793 398.855 297.492 398.884 298.195C398.922 298.893 398.424 299.54 397.391 300.136C396.359 300.732 395.239 301.019 394.032 300.996C392.834 300.969 391.642 300.607 390.457 299.912L388.476 298.749ZM395.868 299.242C396.175 299.064 396.384 298.889 396.496 298.716C396.599 298.538 396.626 298.36 396.576 298.182C396.527 298.004 396.405 297.828 396.21 297.654C396.016 297.481 395.771 297.307 395.475 297.133L393.291 295.851C393.011 295.687 392.719 295.551 392.414 295.441C392.109 295.331 391.803 295.261 391.498 295.231C391.192 295.201 390.886 295.215 390.579 295.273C390.264 295.327 389.962 295.438 389.672 295.605C389.381 295.773 389.189 295.948 389.094 296.131C388.991 296.309 388.964 296.487 389.014 296.665C389.064 296.843 389.181 297.022 389.367 297.2C389.553 297.379 389.785 297.55 390.065 297.714L392.249 298.996C392.545 299.169 392.841 299.314 393.138 299.428C393.435 299.543 393.736 299.615 394.042 299.646C394.347 299.676 394.653 299.662 394.96 299.603C395.258 299.54 395.56 299.419 395.868 299.242ZM397.965 294.986L393.039 292.094L399.03 288.635L400.63 289.574L396.328 292.058L398.741 293.473L398.971 293.34C398.761 293.078 398.699 292.783 398.786 292.457C398.874 292.12 399.195 291.792 399.75 291.472C400.168 291.23 400.615 291.056 401.092 290.948C401.569 290.84 402.049 290.795 402.534 290.811C403.018 290.827 403.498 290.904 403.973 291.044C404.456 291.179 404.91 291.37 405.333 291.619L405.409 291.663C405.858 291.927 406.204 292.219 406.448 292.542C406.701 292.859 406.835 293.191 406.849 293.537C406.864 293.874 406.751 294.215 406.51 294.56C406.27 294.906 405.877 295.237 405.33 295.552C404.784 295.868 404.23 296.104 403.668 296.261C403.097 296.413 402.536 296.496 401.983 296.509C401.431 296.513 400.896 296.452 400.378 296.327C399.861 296.192 399.386 295.998 398.954 295.745L398.649 295.566L400.339 294.59L400.492 294.68C400.94 294.943 401.449 295.083 402.019 295.099C402.588 295.105 403.142 294.953 403.679 294.643C404.217 294.332 404.496 294.004 404.515 293.658C404.543 293.306 404.303 292.982 403.795 292.684C403.313 292.401 402.838 292.256 402.37 292.25C401.895 292.239 401.469 292.342 401.093 292.559C400.846 292.702 400.7 292.85 400.657 293.003C400.605 293.151 400.629 293.28 400.73 293.389L397.965 294.986ZM411.286 279.712L413.202 279.137L420.979 288.158L419.05 288.74L411.286 279.712ZM437.755 274.763L439.355 275.701L433.056 279.338L431.304 278.31C430.838 278.036 430.509 277.763 430.315 277.491C430.13 277.213 430.051 276.934 430.079 276.652C430.115 276.365 430.244 276.073 430.467 275.777C430.682 275.476 430.969 275.162 431.328 274.836C431.594 274.595 431.786 274.385 431.907 274.207C432.027 274.019 432.092 273.854 432.101 273.71C432.102 273.562 432.052 273.433 431.951 273.324C431.85 273.205 431.706 273.091 431.52 272.981C431.164 272.773 430.736 272.675 430.234 272.689C429.741 272.698 429.264 272.835 428.803 273.101C428.317 273.382 428.077 273.693 428.083 274.035C428.08 274.371 428.337 274.691 428.854 274.994L429.412 275.322L427.723 276.297L427.012 275.88C426.597 275.637 426.276 275.364 426.048 275.061C425.821 274.749 425.704 274.432 425.698 274.111C425.692 273.779 425.809 273.45 426.049 273.124C426.281 272.793 426.649 272.482 427.152 272.192C427.69 271.881 428.24 271.657 428.802 271.52C429.355 271.378 429.891 271.305 430.41 271.301C430.937 271.293 431.434 271.351 431.9 271.476C432.367 271.591 432.778 271.752 433.134 271.961L433.286 272.05C434.031 272.488 434.435 272.973 434.5 273.508C434.572 274.038 434.241 274.643 433.505 275.324C433.197 275.61 432.962 275.859 432.799 276.072C432.636 276.274 432.541 276.452 432.514 276.606C432.488 276.759 432.516 276.895 432.601 277.014C432.685 277.123 432.816 277.23 432.994 277.334L433.146 277.423L437.755 274.763ZM434.092 268.392L437.292 266.545L442.904 269.838L444.21 269.084L445.81 270.023L444.504 270.777L446.18 271.761L444.49 272.736L442.814 271.753L438.82 274.059L436.509 272.703L434.092 268.392ZM438.451 272.143L438.679 272.277L441.214 270.814L436.44 268.012L436.21 268.145L438.451 272.143Z" fill="white"/>
<path d="M601.165 182.673C593.905 178.412 590.971 172.601 592.344 167.089C586.852 167.755 581.617 169.323 577.337 171.794C565.553 178.597 565.474 189.673 577.161 196.532C588.848 203.391 607.876 203.436 619.66 196.633C623.94 194.162 626.675 191.127 627.864 187.936C618.384 188.69 608.426 186.934 601.165 182.673Z" fill="white"/>
<path d="M594.309 165.744C595.549 162.652 598.25 159.72 602.408 157.319C614.192 150.515 633.219 150.56 644.906 157.42C656.594 164.279 656.515 175.355 644.731 182.158C640.573 184.559 635.513 186.107 630.192 186.804C631.718 181.218 628.805 175.296 621.436 170.97C614.066 166.645 603.916 164.901 594.309 165.744Z" fill="white"/>
</g>
<rect x="2.20737" width="512.19" height="330.052" rx="30.4018" transform="matrix(0.866025 -0.5 0.866025 0.5 0.295731 258.473)" stroke="url(#paint0_linear_6_8538)" stroke-width="2.54885"/>
</g>
<defs>
<filter id="filter0_b_6_8538" x="-31.6762" y="-31.6762" width="797.17" height="487.022" filterUnits="userSpaceOnUse" color-interpolation-filters="sRGB">
<feFlood flood-opacity="0" result="BackgroundImageFix"/>
<feGaussianBlur in="BackgroundImageFix" stdDeviation="15.8381"/>
<feComposite in2="SourceAlpha" operator="in" result="effect1_backgroundBlur_6_8538"/>
<feBlend mode="normal" in="SourceGraphic" in2="effect1_backgroundBlur_6_8538" result="shape"/>
</filter>
<linearGradient id="paint0_linear_6_8538" x1="7.68076" y1="6.73782" x2="520.739" y2="331.048" gradientUnits="userSpaceOnUse">
<stop offset="0.0182506" stop-color="white" stop-opacity="0.5"/>
<stop offset="1" stop-color="white" stop-opacity="0.1"/>
</linearGradient>
<clipPath id="clip0_6_8538">
<rect width="514.739" height="332.6" rx="31.6762" transform="matrix(0.866025 -0.5 0.866025 0.5 0 257.369)" fill="white"/>
</clipPath>
</defs>
</svg>
