<svg width="474" height="307" viewBox="0 0 474 307" fill="none" xmlns="http://www.w3.org/2000/svg">
<g filter="url(#filter0_b_6_5928)">
<rect width="474" height="306.277" rx="29.1692" fill="black" fill-opacity="0.7"/>
<path d="M91.6252 56.0808C91.5732 60.1813 95.2795 62.4694 98.0714 63.83C100.94 65.2258 101.903 66.1209 101.892 67.3693C101.871 69.2796 99.604 70.1228 97.4829 70.1556C93.7822 70.2129 91.6305 69.1564 89.9199 68.3574L88.5868 74.5954C90.3031 75.3862 93.481 76.0759 96.7764 76.1062C104.512 76.1062 109.573 72.2877 109.6 66.3673C109.631 58.8536 99.2073 58.4377 99.2785 55.0792C99.3031 54.0609 100.275 52.9741 102.404 52.6978C103.458 52.5582 106.368 52.4514 109.666 53.9704L110.961 47.935C109.187 47.2891 106.907 46.6706 104.068 46.6706C96.7875 46.6706 91.6665 50.5411 91.6252 56.0808ZM123.401 47.1905C121.989 47.1905 120.798 48.0144 120.267 49.2788L109.217 75.6629H116.947L118.485 71.4118H127.931L128.823 75.6629H135.636L129.691 47.1905H123.401ZM124.483 54.882L126.713 65.5737H120.604L124.483 54.882ZM82.253 47.1908L76.16 75.6625H83.526L89.6162 47.1901H82.253V47.1908ZM71.3563 47.1901L63.6894 66.5699L60.588 50.0921C60.2241 48.2526 58.787 47.1905 57.1911 47.1905H44.6581L44.4826 48.0173C47.0556 48.5756 49.9789 49.4761 51.75 50.4396C52.8339 51.0282 53.1429 51.5427 53.499 52.9414L59.3731 75.6629H67.1571L79.0912 47.1905H71.3563" fill="white"/>
<path d="M50.1973 192.469V173.699H49.8123L46.1224 182.138H43.4592V181.945L47.6625 172.512H52.8925V192.469H59.2456V194.972H43.8442V192.469H50.1973ZM78.6675 192.469V194.972H63.4587V191.122C63.4587 190.095 63.6298 189.207 63.972 188.459C64.3143 187.689 64.7956 187.036 65.4159 186.501C66.0576 185.945 66.8277 185.485 67.7261 185.122C68.6245 184.758 69.6406 184.448 70.7743 184.191C72.6781 183.763 74.0471 183.154 74.8813 182.362C75.737 181.571 76.1648 180.598 76.1648 179.442V179.25C76.1648 178.672 76.0685 178.106 75.876 177.549C75.6835 176.993 75.384 176.491 74.9776 176.041C74.5712 175.592 74.0471 175.239 73.4054 174.982C72.785 174.704 72.0364 174.565 71.1593 174.565C69.5123 174.565 68.2288 175.068 67.309 176.073C66.4106 177.079 65.9614 178.416 65.9614 180.084V181.496H63.2661V179.892C63.2661 178.865 63.4373 177.881 63.7795 176.94C64.1218 175.999 64.6245 175.164 65.2876 174.437C65.9507 173.71 66.7742 173.132 67.7582 172.704C68.7422 172.277 69.8759 172.063 71.1593 172.063C72.4642 172.063 73.5979 172.266 74.5605 172.672C75.5231 173.057 76.3252 173.581 76.9669 174.245C77.6087 174.886 78.0793 175.624 78.3787 176.458C78.6996 177.271 78.86 178.106 78.86 178.961V179.539C78.86 181.25 78.3252 182.715 77.2557 183.935C76.1862 185.132 74.4749 185.988 72.1219 186.501C70.0684 186.951 68.5604 187.55 67.5978 188.298C66.6352 189.026 66.1539 190.095 66.1539 191.507V192.469H78.6675ZM88.4636 183.806V180.084L95.7792 175.4V175.015H83.0731V172.512H98.0894V176.619L90.7738 181.303V181.689H92.0572C92.9128 181.689 93.7364 181.828 94.5278 182.106C95.3193 182.384 96.0145 182.79 96.6134 183.325C97.2338 183.86 97.7258 184.523 98.0894 185.314C98.4744 186.084 98.6669 186.983 98.6669 188.009V188.587C98.6669 189.55 98.4744 190.448 98.0894 191.282C97.7044 192.117 97.1696 192.844 96.4851 193.464C95.8006 194.063 94.9877 194.544 94.0465 194.908C93.1267 195.25 92.1214 195.421 91.0304 195.421C89.7684 195.421 88.6347 195.229 87.6293 194.844C86.6239 194.459 85.7683 193.935 85.0624 193.272C84.3565 192.587 83.8111 191.796 83.426 190.897C83.0624 189.977 82.8806 189.004 82.8806 187.977V186.245H85.5758V187.785C85.5758 188.598 85.7041 189.325 85.9608 189.967C86.2389 190.587 86.6133 191.122 87.0838 191.571C87.5758 191.999 88.1534 192.33 88.8165 192.566C89.4796 192.801 90.1962 192.919 90.9663 192.919C91.6722 192.919 92.3246 192.801 92.9235 192.566C93.5439 192.33 94.0786 192.01 94.5278 191.603C94.977 191.175 95.33 190.683 95.5867 190.127C95.8434 189.55 95.9717 188.94 95.9717 188.298V188.106C95.9717 186.758 95.5439 185.71 94.6883 184.961C93.8326 184.191 92.7631 183.806 91.4797 183.806H88.4636ZM109.939 172.512H115.169V188.234H118.634V190.737H115.169V194.972H112.474V190.737H102.078V187.015L109.939 172.512ZM104.388 187.849V188.234H112.474V173.667H112.089L104.388 187.849ZM142.301 184.384V172.512H156.355V175.015H144.932V183.036H145.317C145.531 182.608 145.809 182.202 146.152 181.817C146.494 181.41 146.89 181.057 147.339 180.758C147.809 180.459 148.334 180.223 148.911 180.052C149.489 179.86 150.13 179.763 150.836 179.763C151.863 179.763 152.804 179.934 153.66 180.277C154.537 180.619 155.286 181.1 155.906 181.721C156.526 182.341 157.008 183.09 157.35 183.967C157.713 184.844 157.895 185.817 157.895 186.886V187.464C157.895 188.534 157.724 189.55 157.382 190.512C157.04 191.453 156.537 192.298 155.874 193.047C155.211 193.774 154.387 194.352 153.403 194.78C152.419 195.207 151.285 195.421 150.002 195.421C148.697 195.421 147.542 195.229 146.537 194.844C145.531 194.459 144.686 193.924 144.002 193.24C143.317 192.555 142.793 191.753 142.43 190.833C142.087 189.892 141.916 188.876 141.916 187.785V186.886H144.612V187.592C144.612 189.368 145.104 190.705 146.088 191.603C147.093 192.48 148.398 192.919 150.002 192.919C150.858 192.919 151.606 192.769 152.248 192.469C152.911 192.149 153.457 191.731 153.884 191.218C154.334 190.683 154.665 190.074 154.879 189.389C155.093 188.683 155.2 187.956 155.2 187.207V187.015C155.2 186.352 155.082 185.731 154.847 185.154C154.633 184.576 154.323 184.074 153.917 183.646C153.532 183.218 153.05 182.886 152.473 182.651C151.917 182.394 151.307 182.266 150.644 182.266C150.195 182.266 149.777 182.33 149.392 182.459C149.029 182.587 148.708 182.758 148.43 182.972C148.152 183.164 147.916 183.389 147.724 183.646C147.553 183.902 147.435 184.148 147.371 184.384H142.301ZM173.98 179.057C173.98 177.667 173.552 176.555 172.697 175.72C171.841 174.865 170.654 174.437 169.135 174.437C168.408 174.437 167.734 174.565 167.114 174.822C166.515 175.079 165.991 175.453 165.542 175.945C165.114 176.416 164.771 176.983 164.515 177.646C164.279 178.309 164.162 179.036 164.162 179.828V183.164H164.547C165.06 182.223 165.788 181.485 166.729 180.951C167.691 180.416 168.761 180.148 169.937 180.148C170.964 180.148 171.916 180.319 172.793 180.662C173.67 180.983 174.419 181.464 175.039 182.106C175.681 182.747 176.173 183.528 176.515 184.448C176.879 185.346 177.06 186.373 177.06 187.528V187.913C177.06 189.026 176.857 190.042 176.451 190.961C176.066 191.881 175.52 192.673 174.814 193.336C174.13 193.999 173.306 194.512 172.344 194.876C171.403 195.24 170.376 195.421 169.264 195.421C168.151 195.421 167.114 195.24 166.151 194.876C165.21 194.512 164.386 194.01 163.681 193.368C162.996 192.705 162.451 191.924 162.044 191.026C161.659 190.106 161.467 189.1 161.467 188.009V179.828C161.467 178.651 161.67 177.581 162.076 176.619C162.483 175.656 163.039 174.843 163.745 174.18C164.451 173.496 165.263 172.972 166.183 172.608C167.124 172.244 168.13 172.063 169.199 172.063C170.269 172.063 171.264 172.223 172.183 172.544C173.103 172.865 173.895 173.335 174.558 173.956C175.221 174.555 175.734 175.293 176.098 176.17C176.483 177.025 176.675 177.988 176.675 179.057H173.98ZM169.264 193.047C170.034 193.047 170.729 192.929 171.349 192.694C171.991 192.437 172.536 192.084 172.986 191.635C173.435 191.186 173.777 190.651 174.012 190.031C174.248 189.411 174.365 188.726 174.365 187.977V187.592C174.365 186.844 174.237 186.159 173.98 185.539C173.723 184.919 173.371 184.384 172.921 183.935C172.472 183.485 171.927 183.143 171.285 182.908C170.665 182.651 169.991 182.523 169.264 182.523C168.536 182.523 167.862 182.651 167.242 182.908C166.622 183.164 166.076 183.517 165.606 183.967C165.156 184.416 164.804 184.94 164.547 185.539C164.29 186.138 164.162 186.78 164.162 187.464V188.074C164.162 188.78 164.279 189.443 164.515 190.063C164.75 190.662 165.092 191.186 165.542 191.635C165.991 192.084 166.525 192.437 167.146 192.694C167.788 192.929 168.493 193.047 169.264 193.047ZM181.402 172.512H196.418V176.426L186.953 190.737C186.504 191.421 186.161 192.01 185.926 192.502C185.691 192.994 185.573 193.496 185.573 194.01V194.972H182.942V193.817C182.942 193.432 182.974 193.068 183.038 192.726C183.124 192.384 183.241 192.042 183.391 191.699C183.562 191.336 183.766 190.961 184.001 190.576C184.258 190.17 184.557 189.71 184.899 189.197L194.108 175.4V175.015H181.402V172.512ZM208.268 195.421C207.134 195.421 206.107 195.272 205.187 194.972C204.268 194.651 203.476 194.223 202.813 193.689C202.15 193.133 201.637 192.491 201.273 191.764C200.931 191.015 200.76 190.202 200.76 189.325V188.94C200.76 188.17 200.877 187.485 201.113 186.886C201.348 186.288 201.658 185.763 202.043 185.314C202.428 184.865 202.867 184.491 203.359 184.191C203.872 183.892 204.396 183.667 204.931 183.517V183.132C204.439 182.983 203.979 182.758 203.551 182.459C203.123 182.159 202.738 181.806 202.396 181.4C202.075 180.993 201.818 180.533 201.626 180.02C201.433 179.485 201.337 178.908 201.337 178.287V177.902C201.337 177.047 201.508 176.266 201.851 175.56C202.193 174.833 202.674 174.212 203.294 173.699C203.936 173.186 204.685 172.79 205.54 172.512C206.417 172.212 207.391 172.063 208.46 172.063H208.653C209.701 172.063 210.663 172.212 211.541 172.512C212.418 172.79 213.166 173.186 213.787 173.699C214.428 174.212 214.92 174.833 215.263 175.56C215.605 176.266 215.776 177.047 215.776 177.902V178.287C215.776 178.908 215.68 179.485 215.487 180.02C215.295 180.533 215.027 180.993 214.685 181.4C214.364 181.806 213.979 182.159 213.53 182.459C213.102 182.758 212.653 182.983 212.182 183.132V183.517C212.717 183.667 213.23 183.892 213.722 184.191C214.236 184.491 214.685 184.865 215.07 185.314C215.455 185.763 215.765 186.288 216 186.886C216.236 187.485 216.353 188.17 216.353 188.94V189.325C216.353 190.202 216.172 191.015 215.808 191.764C215.466 192.491 214.963 193.133 214.3 193.689C213.637 194.223 212.845 194.651 211.926 194.972C211.006 195.272 209.979 195.421 208.845 195.421H208.268ZM208.749 192.983C210.204 192.983 211.38 192.608 212.279 191.86C213.198 191.111 213.658 190.138 213.658 188.94V188.747C213.658 187.421 213.188 186.394 212.246 185.667C211.327 184.94 210.129 184.576 208.653 184.576H208.46C206.984 184.576 205.776 184.94 204.835 185.667C203.915 186.394 203.455 187.421 203.455 188.747V188.94C203.455 190.138 203.904 191.111 204.802 191.86C205.722 192.608 206.909 192.983 208.364 192.983H208.749ZM208.557 182.074C209.904 182.074 210.995 181.721 211.829 181.015C212.664 180.309 213.081 179.421 213.081 178.352V178.159C213.081 177.068 212.664 176.191 211.829 175.528C211.016 174.843 209.926 174.501 208.557 174.501C207.187 174.501 206.086 174.843 205.252 175.528C204.439 176.191 204.032 177.068 204.032 178.159V178.352C204.032 179.421 204.449 180.309 205.284 181.015C206.118 181.721 207.209 182.074 208.557 182.074ZM243.133 188.427C243.133 189.817 243.561 190.94 244.416 191.796C245.272 192.63 246.459 193.047 247.978 193.047C248.705 193.047 249.368 192.919 249.967 192.662C250.588 192.405 251.112 192.042 251.539 191.571C251.989 191.079 252.331 190.512 252.566 189.87C252.823 189.207 252.951 188.469 252.951 187.657V184.32H252.566C252.074 185.261 251.368 185.999 250.448 186.534C249.529 187.068 248.459 187.336 247.24 187.336C246.192 187.336 245.229 187.175 244.352 186.854C243.475 186.534 242.716 186.063 242.074 185.443C241.432 184.801 240.93 184.031 240.566 183.132C240.224 182.234 240.053 181.207 240.053 180.052V179.667C240.053 178.555 240.245 177.539 240.63 176.619C241.015 175.678 241.55 174.876 242.234 174.212C242.94 173.528 243.764 173.004 244.705 172.64C245.668 172.255 246.716 172.063 247.85 172.063C248.983 172.063 250.021 172.255 250.962 172.64C251.924 173.004 252.748 173.517 253.432 174.18C254.138 174.843 254.684 175.635 255.069 176.555C255.454 177.475 255.646 178.48 255.646 179.571V187.657C255.646 188.854 255.443 189.935 255.037 190.897C254.652 191.838 254.106 192.651 253.4 193.336C252.716 193.999 251.903 194.512 250.962 194.876C250.021 195.24 249.005 195.421 247.914 195.421C246.823 195.421 245.817 195.261 244.898 194.94C243.978 194.619 243.186 194.159 242.523 193.56C241.86 192.94 241.347 192.202 240.983 191.346C240.619 190.469 240.438 189.496 240.438 188.427H243.133ZM247.85 174.437C247.079 174.437 246.374 174.565 245.732 174.822C245.111 175.079 244.577 175.442 244.128 175.913C243.678 176.384 243.336 176.94 243.101 177.581C242.865 178.202 242.748 178.876 242.748 179.603V179.988C242.748 180.737 242.876 181.421 243.133 182.041C243.39 182.64 243.742 183.164 244.192 183.614C244.641 184.041 245.176 184.373 245.796 184.608C246.416 184.844 247.101 184.961 247.85 184.961C248.577 184.961 249.251 184.844 249.871 184.608C250.491 184.352 251.026 184.009 251.475 183.582C251.946 183.154 252.309 182.64 252.566 182.041C252.823 181.443 252.951 180.801 252.951 180.116V179.507C252.951 178.801 252.834 178.138 252.598 177.517C252.363 176.897 252.021 176.362 251.571 175.913C251.122 175.442 250.577 175.079 249.935 174.822C249.315 174.565 248.62 174.437 247.85 174.437ZM259.603 181.239C259.603 178.33 260.298 176.073 261.688 174.469C263.079 172.865 265.015 172.063 267.496 172.063C269.977 172.063 271.913 172.865 273.304 174.469C274.694 176.073 275.389 178.33 275.389 181.239V186.245C275.389 189.239 274.694 191.518 273.304 193.079C271.913 194.641 269.977 195.421 267.496 195.421C265.015 195.421 263.079 194.641 261.688 193.079C260.298 191.518 259.603 189.239 259.603 186.245V181.239ZM267.496 192.983C269.229 192.983 270.523 192.384 271.378 191.186C272.255 189.967 272.694 188.255 272.694 186.052V181.432C272.694 180.405 272.587 179.475 272.373 178.64C272.159 177.785 271.828 177.057 271.378 176.458C270.951 175.838 270.405 175.357 269.742 175.015C269.1 174.672 268.352 174.501 267.496 174.501C266.619 174.501 265.86 174.672 265.218 175.015C264.576 175.357 264.031 175.838 263.581 176.458C263.154 177.057 262.833 177.785 262.619 178.64C262.405 179.475 262.298 180.405 262.298 181.432V186.052C262.298 188.255 262.726 189.967 263.581 191.186C264.459 192.384 265.763 192.983 267.496 192.983ZM265.442 183.742C265.442 183.186 265.646 182.705 266.052 182.298C266.459 181.892 266.94 181.689 267.496 181.689C268.052 181.689 268.533 181.892 268.94 182.298C269.346 182.705 269.55 183.186 269.55 183.742C269.55 184.298 269.346 184.779 268.94 185.186C268.533 185.592 268.052 185.796 267.496 185.796C266.94 185.796 266.459 185.592 266.052 185.186C265.646 184.779 265.442 184.298 265.442 183.742ZM279.249 181.239C279.249 178.33 279.945 176.073 281.335 174.469C282.725 172.865 284.661 172.063 287.143 172.063C289.624 172.063 291.56 172.865 292.95 174.469C294.341 176.073 295.036 178.33 295.036 181.239V186.245C295.036 189.239 294.341 191.518 292.95 193.079C291.56 194.641 289.624 195.421 287.143 195.421C284.661 195.421 282.725 194.641 281.335 193.079C279.945 191.518 279.249 189.239 279.249 186.245V181.239ZM287.143 192.983C288.875 192.983 290.169 192.384 291.025 191.186C291.902 189.967 292.34 188.255 292.34 186.052V181.432C292.34 180.405 292.234 179.475 292.02 178.64C291.806 177.785 291.474 177.057 291.025 176.458C290.597 175.838 290.052 175.357 289.389 175.015C288.747 174.672 287.998 174.501 287.143 174.501C286.265 174.501 285.506 174.672 284.864 175.015C284.223 175.357 283.677 175.838 283.228 176.458C282.8 177.057 282.479 177.785 282.265 178.64C282.052 179.475 281.945 180.405 281.945 181.432V186.052C281.945 188.255 282.372 189.967 283.228 191.186C284.105 192.384 285.41 192.983 287.143 192.983ZM285.089 183.742C285.089 183.186 285.292 182.705 285.699 182.298C286.105 181.892 286.586 181.689 287.143 181.689C287.699 181.689 288.18 181.892 288.586 182.298C288.993 182.705 289.196 183.186 289.196 183.742C289.196 184.298 288.993 184.779 288.586 185.186C288.18 185.592 287.699 185.796 287.143 185.796C286.586 185.796 286.105 185.592 285.699 185.186C285.292 184.779 285.089 184.298 285.089 183.742ZM298.896 181.239C298.896 178.33 299.591 176.073 300.981 174.469C302.372 172.865 304.308 172.063 306.789 172.063C309.27 172.063 311.206 172.865 312.597 174.469C313.987 176.073 314.682 178.33 314.682 181.239V186.245C314.682 189.239 313.987 191.518 312.597 193.079C311.206 194.641 309.27 195.421 306.789 195.421C304.308 195.421 302.372 194.641 300.981 193.079C299.591 191.518 298.896 189.239 298.896 186.245V181.239ZM306.789 192.983C308.522 192.983 309.816 192.384 310.671 191.186C311.548 189.967 311.987 188.255 311.987 186.052V181.432C311.987 180.405 311.88 179.475 311.666 178.64C311.452 177.785 311.121 177.057 310.671 176.458C310.244 175.838 309.698 175.357 309.035 175.015C308.393 174.672 307.645 174.501 306.789 174.501C305.912 174.501 305.153 174.672 304.511 175.015C303.869 175.357 303.324 175.838 302.875 176.458C302.447 177.057 302.126 177.785 301.912 178.64C301.698 179.475 301.591 180.405 301.591 181.432V186.052C301.591 188.255 302.019 189.967 302.875 191.186C303.752 192.384 305.056 192.983 306.789 192.983ZM304.736 183.742C304.736 183.186 304.939 182.705 305.345 182.298C305.752 181.892 306.233 181.689 306.789 181.689C307.345 181.689 307.826 181.892 308.233 182.298C308.639 182.705 308.843 183.186 308.843 183.742C308.843 184.298 308.639 184.779 308.233 185.186C307.826 185.592 307.345 185.796 306.789 185.796C306.233 185.796 305.752 185.592 305.345 185.186C304.939 184.779 304.736 184.298 304.736 183.742ZM338.189 181.239C338.189 178.33 338.884 176.073 340.274 174.469C341.665 172.865 343.601 172.063 346.082 172.063C348.563 172.063 350.499 172.865 351.89 174.469C353.28 176.073 353.975 178.33 353.975 181.239V186.245C353.975 189.239 353.28 191.518 351.89 193.079C350.499 194.641 348.563 195.421 346.082 195.421C343.601 195.421 341.665 194.641 340.274 193.079C338.884 191.518 338.189 189.239 338.189 186.245V181.239ZM346.082 192.983C347.815 192.983 349.109 192.384 349.964 191.186C350.841 189.967 351.28 188.255 351.28 186.052V181.432C351.28 180.405 351.173 179.475 350.959 178.64C350.745 177.785 350.414 177.057 349.964 176.458C349.537 175.838 348.991 175.357 348.328 175.015C347.686 174.672 346.938 174.501 346.082 174.501C345.205 174.501 344.446 174.672 343.804 175.015C343.162 175.357 342.617 175.838 342.167 176.458C341.74 177.057 341.419 177.785 341.205 178.64C340.991 179.475 340.884 180.405 340.884 181.432V186.052C340.884 188.255 341.312 189.967 342.167 191.186C343.045 192.384 344.349 192.983 346.082 192.983ZM344.028 183.742C344.028 183.186 344.232 182.705 344.638 182.298C345.045 181.892 345.526 181.689 346.082 181.689C346.638 181.689 347.119 181.892 347.526 182.298C347.932 182.705 348.136 183.186 348.136 183.742C348.136 184.298 347.932 184.779 347.526 185.186C347.119 185.592 346.638 185.796 346.082 185.796C345.526 185.796 345.045 185.592 344.638 185.186C344.232 184.779 344.028 184.298 344.028 183.742ZM357.835 181.239C357.835 178.33 358.531 176.073 359.921 174.469C361.311 172.865 363.247 172.063 365.729 172.063C368.21 172.063 370.146 172.865 371.536 174.469C372.927 176.073 373.622 178.33 373.622 181.239V186.245C373.622 189.239 372.927 191.518 371.536 193.079C370.146 194.641 368.21 195.421 365.729 195.421C363.247 195.421 361.311 194.641 359.921 193.079C358.531 191.518 357.835 189.239 357.835 186.245V181.239ZM365.729 192.983C367.461 192.983 368.755 192.384 369.611 191.186C370.488 189.967 370.926 188.255 370.926 186.052V181.432C370.926 180.405 370.82 179.475 370.606 178.64C370.392 177.785 370.06 177.057 369.611 176.458C369.183 175.838 368.638 175.357 367.975 175.015C367.333 174.672 366.584 174.501 365.729 174.501C364.851 174.501 364.092 174.672 363.45 175.015C362.809 175.357 362.263 175.838 361.814 176.458C361.386 177.057 361.065 177.785 360.851 178.64C360.638 179.475 360.531 180.405 360.531 181.432V186.052C360.531 188.255 360.958 189.967 361.814 191.186C362.691 192.384 363.996 192.983 365.729 192.983ZM363.675 183.742C363.675 183.186 363.878 182.705 364.285 182.298C364.691 181.892 365.172 181.689 365.729 181.689C366.285 181.689 366.766 181.892 367.172 182.298C367.579 182.705 367.782 183.186 367.782 183.742C367.782 184.298 367.579 184.779 367.172 185.186C366.766 185.592 366.285 185.796 365.729 185.796C365.172 185.796 364.691 185.592 364.285 185.186C363.878 184.779 363.675 184.298 363.675 183.742ZM377.482 181.239C377.482 178.33 378.177 176.073 379.567 174.469C380.958 172.865 382.894 172.063 385.375 172.063C387.856 172.063 389.792 172.865 391.183 174.469C392.573 176.073 393.268 178.33 393.268 181.239V186.245C393.268 189.239 392.573 191.518 391.183 193.079C389.792 194.641 387.856 195.421 385.375 195.421C382.894 195.421 380.958 194.641 379.567 193.079C378.177 191.518 377.482 189.239 377.482 186.245V181.239ZM385.375 192.983C387.108 192.983 388.402 192.384 389.257 191.186C390.134 189.967 390.573 188.255 390.573 186.052V181.432C390.573 180.405 390.466 179.475 390.252 178.64C390.038 177.785 389.707 177.057 389.257 176.458C388.83 175.838 388.284 175.357 387.621 175.015C386.979 174.672 386.231 174.501 385.375 174.501C384.498 174.501 383.739 174.672 383.097 175.015C382.455 175.357 381.91 175.838 381.461 176.458C381.033 177.057 380.712 177.785 380.498 178.64C380.284 179.475 380.177 180.405 380.177 181.432V186.052C380.177 188.255 380.605 189.967 381.461 191.186C382.338 192.384 383.642 192.983 385.375 192.983ZM383.322 183.742C383.322 183.186 383.525 182.705 383.931 182.298C384.338 181.892 384.819 181.689 385.375 181.689C385.931 181.689 386.412 181.892 386.819 182.298C387.225 182.705 387.429 183.186 387.429 183.742C387.429 184.298 387.225 184.779 386.819 185.186C386.412 185.592 385.931 185.796 385.375 185.796C384.819 185.796 384.338 185.592 383.931 185.186C383.525 184.779 383.322 184.298 383.322 183.742ZM397.128 181.239C397.128 178.33 397.824 176.073 399.214 174.469C400.604 172.865 402.54 172.063 405.022 172.063C407.503 172.063 409.439 172.865 410.829 174.469C412.22 176.073 412.915 178.33 412.915 181.239V186.245C412.915 189.239 412.22 191.518 410.829 193.079C409.439 194.641 407.503 195.421 405.022 195.421C402.54 195.421 400.604 194.641 399.214 193.079C397.824 191.518 397.128 189.239 397.128 186.245V181.239ZM405.022 192.983C406.754 192.983 408.048 192.384 408.904 191.186C409.781 189.967 410.219 188.255 410.219 186.052V181.432C410.219 180.405 410.113 179.475 409.899 178.64C409.685 177.785 409.353 177.057 408.904 176.458C408.476 175.838 407.931 175.357 407.268 175.015C406.626 174.672 405.877 174.501 405.022 174.501C404.144 174.501 403.385 174.672 402.743 175.015C402.102 175.357 401.556 175.838 401.107 176.458C400.679 177.057 400.358 177.785 400.144 178.64C399.931 179.475 399.824 180.405 399.824 181.432V186.052C399.824 188.255 400.251 189.967 401.107 191.186C401.984 192.384 403.289 192.983 405.022 192.983ZM402.968 183.742C402.968 183.186 403.171 182.705 403.578 182.298C403.984 181.892 404.465 181.689 405.022 181.689C405.578 181.689 406.059 181.892 406.465 182.298C406.872 182.705 407.075 183.186 407.075 183.742C407.075 184.298 406.872 184.779 406.465 185.186C406.059 185.592 405.578 185.796 405.022 185.796C404.465 185.796 403.984 185.592 403.578 185.186C403.171 184.779 402.968 184.298 402.968 183.742Z" fill="white"/>
<path d="M46.2493 250.464C45.03 250.464 44.0601 250.132 43.3396 249.467C42.6191 248.793 42.2589 247.832 42.2589 246.585V244.257C42.2589 243.01 42.6191 242.054 43.3396 241.389C44.0601 240.715 45.03 240.378 46.2493 240.378C47.4685 240.378 48.4384 240.715 49.1589 241.389C49.8794 242.054 50.2396 243.01 50.2396 244.257V246.585C50.2396 247.832 49.8794 248.793 49.1589 249.467C48.4384 250.132 47.4685 250.464 46.2493 250.464ZM46.2493 248.83C46.9328 248.83 47.4639 248.631 47.8426 248.234C48.2213 247.837 48.4107 247.305 48.4107 246.64V244.202C48.4107 243.537 48.2213 243.006 47.8426 242.608C47.4639 242.211 46.9328 242.013 46.2493 242.013C45.575 242.013 45.0438 242.211 44.6559 242.608C44.2772 243.006 44.0878 243.537 44.0878 244.202V246.64C44.0878 247.305 44.2772 247.837 44.6559 248.234C45.0438 248.631 45.575 248.83 46.2493 248.83ZM55.2107 250.464C54.4625 250.464 53.802 250.331 53.2293 250.063C52.6566 249.795 52.2087 249.411 51.8854 248.913C51.5621 248.414 51.4004 247.813 51.4004 247.111V246.724H53.2016V247.111C53.2016 247.693 53.3817 248.132 53.742 248.428C54.1022 248.714 54.5918 248.857 55.2107 248.857C55.8388 248.857 56.3052 248.733 56.61 248.483C56.9241 248.234 57.0811 247.915 57.0811 247.527C57.0811 247.259 57.0026 247.042 56.8456 246.876C56.6978 246.71 56.4761 246.576 56.1805 246.474C55.8942 246.363 55.5432 246.262 55.1275 246.169L54.8088 246.1C54.1438 245.952 53.5711 245.768 53.0908 245.546C52.6197 245.315 52.2548 245.015 51.9962 244.645C51.7468 244.276 51.6221 243.795 51.6221 243.204C51.6221 242.613 51.7607 242.11 52.0378 241.694C52.3241 241.269 52.7213 240.946 53.2293 240.724C53.7466 240.493 54.3516 240.378 55.0444 240.378C55.7372 240.378 56.3514 240.498 56.8872 240.738C57.4321 240.969 57.857 241.32 58.1618 241.791C58.4759 242.253 58.6329 242.835 58.6329 243.537V243.952H56.8317V243.537C56.8317 243.167 56.7578 242.872 56.61 242.65C56.4715 242.419 56.2683 242.253 56.0004 242.151C55.7325 242.04 55.4139 241.985 55.0444 241.985C54.4902 241.985 54.0791 242.091 53.8113 242.304C53.5526 242.507 53.4233 242.789 53.4233 243.149C53.4233 243.389 53.4833 243.592 53.6034 243.758C53.7327 243.925 53.9221 244.063 54.1715 244.174C54.4209 244.285 54.7396 244.382 55.1275 244.465L55.4462 244.534C56.139 244.682 56.7394 244.872 57.2474 245.102C57.7647 245.333 58.1665 245.638 58.4528 246.017C58.7392 246.396 58.8823 246.881 58.8823 247.472C58.8823 248.063 58.7299 248.585 58.4251 249.037C58.1295 249.481 57.7046 249.832 57.1504 250.09C56.6054 250.34 55.9588 250.464 55.2107 250.464ZM63.9319 250.464C62.7311 250.464 61.7797 250.132 61.0776 249.467C60.3756 248.793 60.0246 247.832 60.0246 246.585V244.257C60.0246 243.01 60.3756 242.054 61.0776 241.389C61.7797 240.715 62.7311 240.378 63.9319 240.378C65.1234 240.378 66.0425 240.706 66.6891 241.361C67.3449 242.008 67.6728 242.899 67.6728 244.036V244.119H65.8716V243.98C65.8716 243.407 65.71 242.936 65.3867 242.567C65.0726 242.197 64.5877 242.013 63.9319 242.013C63.2853 242.013 62.7772 242.211 62.4078 242.608C62.0383 243.006 61.8536 243.546 61.8536 244.23V246.613C61.8536 247.287 62.0383 247.827 62.4078 248.234C62.7772 248.631 63.2853 248.83 63.9319 248.83C64.5877 248.83 65.0726 248.645 65.3867 248.275C65.71 247.897 65.8716 247.426 65.8716 246.862V246.613H67.6728V246.807C67.6728 247.943 67.3449 248.839 66.6891 249.495C66.0425 250.141 65.1234 250.464 63.9319 250.464ZM68.3897 250.271L70.9391 240.572H74.1258L76.6752 250.271H74.7909L74.2644 248.137H70.8006L70.2741 250.271H68.3897ZM71.2301 246.446H73.8349L72.6572 241.722H72.4078L71.2301 246.446ZM77.8362 250.271V240.572H82.0482C82.6578 240.572 83.189 240.678 83.6416 240.89C84.0942 241.103 84.4452 241.403 84.6946 241.791C84.944 242.179 85.0687 242.636 85.0687 243.163V243.329C85.0687 243.911 84.9301 244.382 84.653 244.742C84.3759 245.102 84.0341 245.366 83.6277 245.532V245.781C83.9972 245.8 84.2835 245.929 84.4868 246.169C84.69 246.4 84.7916 246.71 84.7916 247.098V250.271H82.9627V247.361C82.9627 247.139 82.9026 246.959 82.7825 246.821C82.6717 246.682 82.4823 246.613 82.2145 246.613H79.6651V250.271H77.8362ZM79.6651 244.95H81.8542C82.2884 244.95 82.6255 244.835 82.8657 244.604C83.1151 244.363 83.2398 244.049 83.2398 243.661V243.523C83.2398 243.135 83.1197 242.826 82.8795 242.595C82.6394 242.354 82.2976 242.234 81.8542 242.234H79.6651V244.95ZM90.1085 250.271V240.572H93.503L95.1795 249.024H95.4289L97.1054 240.572H100.5V250.271H98.7265V241.916H98.4771L96.8145 250.271H93.794L92.1314 241.916H91.882V250.271H90.1085ZM101.662 250.271L104.211 240.572H107.398L109.947 250.271H108.063L107.536 248.137H104.072L103.546 250.271H101.662ZM104.502 246.446H107.107L105.929 241.722H105.68L104.502 246.446ZM111.108 250.271V240.572H115.32C115.93 240.572 116.461 240.678 116.913 240.89C117.366 241.103 117.717 241.403 117.966 241.791C118.216 242.179 118.341 242.636 118.341 243.163V243.329C118.341 243.911 118.202 244.382 117.925 244.742C117.648 245.102 117.306 245.366 116.9 245.532V245.781C117.269 245.8 117.555 245.929 117.759 246.169C117.962 246.4 118.063 246.71 118.063 247.098V250.271H116.235V247.361C116.235 247.139 116.174 246.959 116.054 246.821C115.944 246.682 115.754 246.613 115.486 246.613H112.937V250.271H111.108ZM112.937 244.95H115.126C115.56 244.95 115.897 244.835 116.138 244.604C116.387 244.363 116.512 244.049 116.512 243.661V243.523C116.512 243.135 116.392 242.826 116.151 242.595C115.911 242.354 115.569 242.234 115.126 242.234H112.937V244.95ZM119.862 250.271V240.572H121.691V250.271H119.862ZM125.76 250.271V242.234H122.934V240.572H130.416V242.234H127.589V250.271H125.76ZM131.661 250.271V240.572H133.49V250.271H131.661ZM135.314 250.271V240.572H138.709L140.385 249.024H140.635L142.311 240.572H145.706V250.271H143.932V241.916H143.683L142.02 250.271H139L137.337 241.916H137.088V250.271H135.314Z" fill="white"/>
<path d="M402.26 57.0585C402.709 57.6257 403.044 58.3063 403.265 58.9869C403.487 59.6675 403.593 60.4616 403.587 61.2556C403.58 62.0497 403.46 62.8437 403.228 63.5243C402.996 64.205 402.65 64.8856 402.191 65.4527C401.618 66.2468 401.722 67.3812 402.511 67.9483C403.301 68.5155 404.436 68.4021 405.01 67.608C405.698 66.7005 406.159 65.7931 406.622 64.6587C407.085 63.5243 407.208 62.39 407.217 61.2556C407.226 60.1213 407.009 58.9869 406.678 57.8525C406.346 56.8316 405.787 55.8107 405.114 54.9032C404.553 54.1092 403.42 53.9957 402.621 54.5629C401.822 55.1301 401.699 56.2644 402.26 57.0585Z" fill="white"/>
<path d="M408.526 53.7688C409.87 55.9241 410.643 58.5332 410.62 61.2556C410.598 63.9781 409.782 66.5871 408.403 68.7424C407.83 69.5364 408.161 70.6708 408.95 71.238C409.853 71.8052 410.877 71.4648 411.45 70.6708C413.174 67.9483 414.221 64.7721 414.25 61.2556C414.278 57.8525 413.284 54.5629 411.605 51.8404C411.044 51.0464 409.913 50.7061 409.114 51.2733C408.315 51.8404 407.967 52.8614 408.526 53.7688Z" fill="white"/>
<path d="M415.134 50.3658C417.036 53.542 418.026 57.2854 417.994 61.2556C417.961 65.2259 416.796 68.9693 414.955 72.1455C414.494 73.053 414.712 74.0739 415.615 74.6411C416.519 75.0948 417.542 74.8679 418.116 73.9604C420.416 70.2171 421.699 65.9065 421.737 61.2556C421.775 56.6047 420.563 52.2942 418.325 48.5508C417.879 47.6433 416.746 47.4164 415.835 47.8702C414.923 48.4374 414.687 49.4583 415.134 50.3658Z" fill="white"/>
<path d="M421.741 46.9627C424.089 51.1598 425.524 56.0376 425.481 61.2556C425.438 66.4737 424.037 71.3514 421.507 75.5485C421.045 76.456 421.264 77.4769 422.167 78.0441C423.071 78.4979 424.093 78.271 424.668 77.3635C427.43 72.5992 429.062 67.1543 429.111 61.2556C429.159 55.357 427.616 49.912 424.932 45.1477C424.486 44.2402 423.353 44.0134 422.442 44.4671C421.531 44.9208 421.295 46.0552 421.741 46.9627Z" fill="white"/>
<path d="M170.796 245.047C170.799 244.739 170.914 244.471 171.143 244.244C171.372 244.017 171.641 243.904 171.949 243.904C172.258 243.904 172.524 244.017 172.749 244.244C172.974 244.471 173.086 244.739 173.083 245.047C173.081 245.356 172.965 245.624 172.736 245.851C172.508 246.077 172.239 246.191 171.93 246.191C171.622 246.191 171.355 246.077 171.13 245.851C170.905 245.624 170.794 245.356 170.796 245.047ZM168.436 243.986C168.446 242.752 168.763 241.794 169.386 241.113C170.017 240.433 170.882 240.093 171.98 240.093C173.078 240.093 173.933 240.433 174.545 241.113C175.165 241.794 175.471 242.752 175.461 243.986L175.443 246.109C175.433 247.38 175.112 248.346 174.48 249.009C173.857 249.671 172.997 250.002 171.899 250.002C170.801 250.002 169.942 249.671 169.321 249.009C168.709 248.346 168.408 247.38 168.419 246.109L168.436 243.986ZM171.912 248.369C172.239 248.369 172.512 248.319 172.73 248.219C172.949 248.11 173.127 247.96 173.265 247.77C173.403 247.579 173.5 247.352 173.556 247.089C173.613 246.826 173.643 246.536 173.645 246.218L173.665 243.877C173.667 243.577 173.638 243.296 173.576 243.033C173.515 242.77 173.417 242.543 173.282 242.352C173.148 242.162 172.972 242.012 172.755 241.903C172.538 241.785 172.276 241.726 171.967 241.726C171.658 241.726 171.395 241.785 171.176 241.903C170.957 242.012 170.779 242.162 170.641 242.352C170.504 242.543 170.402 242.77 170.336 243.033C170.271 243.296 170.237 243.577 170.234 243.877L170.215 246.218C170.212 246.536 170.237 246.826 170.289 247.089C170.342 247.352 170.435 247.579 170.57 247.77C170.704 247.96 170.88 248.11 171.097 248.219C171.314 248.319 171.586 248.369 171.912 248.369ZM176.947 245.565L176.99 240.283H183.361L183.347 241.998H178.773L178.752 244.585H178.997C179.127 244.231 179.365 243.927 179.712 243.673C180.068 243.409 180.541 243.278 181.131 243.278C181.576 243.278 181.974 243.355 182.327 243.509C182.68 243.664 182.978 243.877 183.22 244.149C183.463 244.421 183.646 244.748 183.77 245.129C183.903 245.51 183.968 245.928 183.964 246.381L183.964 246.463C183.96 246.944 183.874 247.398 183.707 247.824C183.55 248.251 183.315 248.627 183.004 248.954C182.702 249.272 182.328 249.526 181.881 249.716C181.435 249.907 180.922 250.002 180.341 250.002C179.76 250.002 179.248 249.925 178.805 249.771C178.361 249.608 177.986 249.385 177.68 249.104C177.383 248.814 177.154 248.473 176.994 248.083C176.843 247.684 176.77 247.253 176.773 246.79L176.776 246.463H178.573L178.572 246.626C178.568 247.107 178.71 247.507 178.997 247.824C179.294 248.133 179.729 248.287 180.3 248.287C180.872 248.287 181.323 248.133 181.652 247.824C181.99 247.516 182.162 247.089 182.166 246.545C182.17 246.028 182.051 245.642 181.808 245.388C181.565 245.125 181.244 244.993 180.845 244.993C180.582 244.993 180.368 245.052 180.204 245.17C180.039 245.279 179.934 245.41 179.887 245.565H176.947ZM198.094 238.582L199.642 239.072L195.47 251.513L193.908 251.023L198.094 238.582ZM216.724 248.097L216.71 249.812H210.012L210.028 247.933C210.032 247.434 210.108 247.008 210.256 246.654C210.413 246.3 210.629 246 210.903 245.755C211.186 245.51 211.524 245.311 211.915 245.156C212.307 244.993 212.748 244.857 213.239 244.748C213.603 244.666 213.898 244.576 214.126 244.476C214.363 244.367 214.55 244.249 214.687 244.122C214.824 243.986 214.916 243.84 214.963 243.686C215.019 243.523 215.047 243.341 215.049 243.142C215.052 242.761 214.914 242.443 214.635 242.189C214.365 241.935 213.985 241.808 213.495 241.808C212.977 241.808 212.563 241.967 212.252 242.284C211.941 242.593 211.783 243.024 211.778 243.577L211.774 244.176H209.977L209.983 243.414C209.987 242.969 210.067 242.547 210.225 242.148C210.391 241.74 210.621 241.386 210.914 241.086C211.216 240.778 211.581 240.537 212.009 240.365C212.437 240.183 212.919 240.093 213.454 240.093C214.026 240.093 214.524 240.179 214.95 240.351C215.375 240.515 215.727 240.732 216.006 241.005C216.294 241.277 216.505 241.594 216.638 241.957C216.78 242.311 216.85 242.679 216.847 243.06L216.845 243.223C216.839 244.022 216.606 244.684 216.148 245.211C215.699 245.737 214.966 246.118 213.947 246.354C213.52 246.454 213.165 246.558 212.883 246.667C212.61 246.767 212.396 246.881 212.24 247.008C212.085 247.135 211.975 247.275 211.91 247.43C211.855 247.575 211.826 247.743 211.824 247.933L211.823 248.097H216.724ZM220.642 240.283H224.045L223.996 246.3H225.384L225.37 248.015H223.982L223.967 249.812H222.17L222.185 248.015H217.938L217.958 245.537L220.642 240.283ZM219.506 246.055L219.504 246.3H222.199L222.241 241.182H221.996L219.506 246.055Z" fill="white"/>
<path d="M403.213 245.021C403.277 237.237 407.068 230.326 412.874 225.98C409.341 223.674 405.114 222.334 400.563 222.334C388.033 222.334 377.792 232.491 377.689 245.021C377.586 257.551 387.661 267.708 400.191 267.708C404.742 267.708 408.991 266.368 412.562 264.062C406.827 259.716 403.149 252.805 403.213 245.021Z" fill="white"/>
<path d="M415.158 225.786C418.664 223.598 422.8 222.334 427.222 222.334C439.752 222.334 449.826 232.491 449.723 245.021C449.621 257.551 439.38 267.708 426.849 267.708C422.428 267.708 418.312 266.443 414.842 264.256C420.797 259.924 424.702 252.922 424.767 245.021C424.831 237.12 421.041 230.118 415.158 225.786Z" fill="white"/>
<rect x="1.17356" y="1.17356" width="471.653" height="303.93" rx="27.9957" stroke="url(#paint0_linear_6_5928)" stroke-width="2.34712"/>
</g>
<defs>
<filter id="filter0_b_6_5928" x="-29.1692" y="-29.1692" width="532.338" height="364.615" filterUnits="userSpaceOnUse" color-interpolation-filters="sRGB">
<feFlood flood-opacity="0" result="BackgroundImageFix"/>
<feGaussianBlur in="BackgroundImageFix" stdDeviation="14.5846"/>
<feComposite in2="SourceAlpha" operator="in" result="effect1_backgroundBlur_6_5928"/>
<feBlend mode="normal" in="SourceGraphic" in2="effect1_backgroundBlur_6_5928" result="shape"/>
</filter>
<linearGradient id="paint0_linear_6_5928" x1="7.07287" y1="6.20456" x2="479.526" y2="304.847" gradientUnits="userSpaceOnUse">
<stop offset="0.0182506" stop-color="white" stop-opacity="0.5"/>
<stop offset="1" stop-color="white" stop-opacity="0.1"/>
</linearGradient>
</defs>
</svg>
